<svg xmlns="http://www.w3.org/2000/svg" viewBox="0 0 512 512" style="height: 512px; width: 512px;"><defs><filter id="shadow-1" height="300%" width="300%" x="-100%" y="-100%"><feFlood flood-color="#ffffff" result="flood"></feFlood><feComposite in="flood" in2="SourceGraphic" operator="atop" result="composite"></feComposite><feGaussianBlur in="composite" stdDeviation="15" result="blur"></feGaussianBlur><feOffset dx="0" dy="0" result="offset"></feOffset><feComposite in="SourceGraphic" in2="offset" operator="over"></feComposite></filter></defs><path d="M0 0h512v512H0z" fill="#000000" opacity="0"></path><g class="" transform="translate(0,0)" style="touch-action: none;"><path fill="#bd10e0" d="M458.915 307.705c0 62.63-54 91.32-91.34 91.34-41.64 0-73.1-18.86-91.83-34.26 2.47 50.95 14.53 87.35 68.65 116h-176.79c54.12-28.65 66.18-65.05 68.65-116-18.73 15.39-50.2 34.28-91.83 34.26-37.29 0-91.34-28.71-91.34-91.34 0-114.47 80.64-83.32 202.91-276.49 122.28 193.17 202.92 162.03 202.92 276.49z" filter="url(#shadow-1)"></path></g></svg>