<svg xmlns="http://www.w3.org/2000/svg" viewBox="0 0 512 512" style="height: 512px; width: 512px;"><defs><filter id="shadow-1" height="300%" width="300%" x="-100%" y="-100%"><feFlood flood-color="#ffffff" result="flood"></feFlood><feComposite in="flood" in2="SourceGraphic" operator="atop" result="composite"></feComposite><feGaussianBlur in="composite" stdDeviation="15" result="blur"></feGaussianBlur><feOffset dx="0" dy="0" result="offset"></feOffset><feComposite in="SourceGraphic" in2="offset" operator="over"></feComposite></filter></defs><path d="M0 0h512v512H0z" fill="#000000" opacity="0"></path><g class="" transform="translate(0,0)" style="touch-action: none;"><path fill="#f5a623" d="M166 121c0 90 90 105 90 180 0 30-30 75-75 75s-75-45-45-120c-45 30-60 60-60 90 0 75 75 150 180 150s180-45 180-135c.67-133.125-153.4-177.596-195-240-30-45-15-75 15-105-60 15-90 57-90 105z" filter="url(#shadow-1)"></path></g></svg>